<svg width="47" height="47" viewBox="0 0 47 47" fill="none" xmlns="http://www.w3.org/2000/svg">
<path fill-rule="evenodd" clip-rule="evenodd" d="M38.016 11.99H22.01V9.99001H38.016V11.99ZM38.016 17.99H22.01V15.99H38.016V17.99ZM38.016 24H22.01V22H38.016V24ZM38.016 30H9.01601V28H38.016V30ZM38.016 36H9.01601V34H38.016V36ZM18 10.99C18.2652 10.99 18.5196 11.0953 18.7071 11.2829C18.8946 11.4704 19 11.7248 19 11.99V20.99C19 21.2552 18.8946 21.5096 18.7071 21.6972C18.5196 21.8847 18.2652 21.99 18 21.99H11C10.7348 21.99 10.4805 21.8847 10.2929 21.6972C10.1054 21.5096 10 21.2552 10 20.99V11.99C10 11.7248 10.1054 11.4704 10.2929 11.2829C10.4805 11.0953 10.7348 10.99 11 10.99H18ZM18 9.99001H11C10.4696 9.99001 9.96091 10.2008 9.58584 10.5758C9.21076 10.9509 9.00002 11.4596 9.00002 11.99V20.99C9.00002 21.5204 9.21076 22.0291 9.58584 22.4042C9.96091 22.7793 10.4696 22.99 11 22.99H18C18.5305 22.99 19.0391 22.7793 19.4142 22.4042C19.7893 22.0291 20 21.5204 20 20.99V11.99C20 11.4596 19.7893 10.9509 19.4142 10.5758C19.0391 10.2008 18.5305 9.99001 18 9.99001ZM23.5 47C18.8522 47 14.3087 45.6218 10.4441 43.0396C6.57956 40.4574 3.5675 36.7871 1.78884 32.4931C0.0101787 28.199 -0.455195 23.474 0.451558 18.9154C1.35831 14.3569 3.59648 10.1695 6.88302 6.88295C10.1695 3.59642 14.3569 1.35831 18.9154 0.451558C23.474 -0.455195 28.199 0.0101787 32.4931 1.78884C36.7871 3.5675 40.4574 6.57956 43.0396 10.4441C45.6218 14.3087 47 18.8522 47 23.5C46.9934 29.7306 44.5154 35.7041 40.1097 40.1098C35.704 44.5154 29.7306 46.9934 23.5 47V47ZM23.5 1.00002C19.0499 1.00002 14.6998 2.31968 10.9997 4.79201C7.29961 7.26434 4.4157 10.7783 2.71273 14.8897C1.00976 19.001 0.564164 23.525 1.43233 27.8895C2.3005 32.2541 4.44343 36.2632 7.59011 39.4099C10.7368 42.5566 14.7459 44.6995 19.1105 45.5676C23.4751 46.4358 27.999 45.9902 32.1104 44.2873C36.2217 42.5843 39.7358 39.7005 42.2081 36.0004C44.6804 32.3003 46 27.9501 46 23.5C45.9937 17.5346 43.6211 11.8154 39.4029 7.59719C35.1847 3.379 29.4654 1.00637 23.5 1.00002V1.00002Z" fill="#9E9E9E"/>
</svg>
