<svg width="47" height="47" viewBox="0 0 47 47" fill="none" xmlns="http://www.w3.org/2000/svg">
<path fill-rule="evenodd" clip-rule="evenodd" d="M17.356 15H20.005V26.0601C20.0167 26.7744 19.8896 27.4841 19.631 28.15C19.4003 28.7357 19.0455 29.2645 18.591 29.7C18.1353 30.1229 17.5965 30.4465 17.009 30.65C16.3666 30.8756 15.6898 30.9872 15.009 30.98C14.3281 30.9885 13.6498 30.8941 12.997 30.7C12.4122 30.534 11.8715 30.2403 11.414 29.84C10.9595 29.4329 10.6049 28.9265 10.378 28.36C10.1164 27.6984 9.98995 26.9913 10.006 26.28H12.655C12.6455 26.6739 12.7044 27.0663 12.829 27.44C12.9274 27.7339 13.0928 28.0009 13.312 28.22C13.5235 28.4196 13.7765 28.57 14.053 28.6601C14.3627 28.7551 14.6851 28.8023 15.009 28.8001C15.3332 28.8039 15.6549 28.7426 15.955 28.62C16.2388 28.5009 16.4923 28.3198 16.697 28.09C16.9144 27.8425 17.0791 27.5533 17.181 27.24C17.3022 26.8586 17.3607 26.4602 17.354 26.0601V15H17.356ZM32.212 26.77C32.2174 26.4835 32.1685 26.1985 32.068 25.9301C31.9558 25.6618 31.7755 25.4273 31.545 25.25C31.2244 25.0057 30.8713 24.8071 30.496 24.6601C29.9356 24.429 29.3632 24.2288 28.781 24.0601C28.06 23.8558 27.3529 23.6052 26.664 23.3101C26.0658 23.0511 25.504 22.7149 24.993 22.3101C24.5415 21.9563 24.1672 21.5138 23.893 21.01C23.6198 20.4892 23.4822 19.908 23.493 19.32C23.4883 18.7182 23.6304 18.1244 23.907 17.59C24.1904 17.057 24.5874 16.5927 25.07 16.23C25.6088 15.8206 26.2193 15.5154 26.87 15.33C27.6212 15.1059 28.4022 14.9981 29.186 15.01C30.0145 14.9946 30.8395 15.1231 31.624 15.39C32.2945 15.6094 32.9147 15.9595 33.449 16.4201C33.9328 16.8364 34.3222 17.3512 34.591 17.9301C34.8576 18.5031 34.9942 19.128 34.991 19.76H32.212C32.2152 19.4052 32.1536 19.0527 32.03 18.72C31.9113 18.4067 31.7205 18.1259 31.473 17.9C31.1979 17.6558 30.8746 17.4718 30.524 17.36C30.085 17.2233 29.6267 17.1592 29.167 17.1701C28.7351 17.1605 28.3042 17.2144 27.888 17.33C27.5615 17.4147 27.2554 17.5644 26.988 17.77C26.758 17.9537 26.5762 18.1904 26.458 18.46C26.3438 18.7287 26.2859 19.0181 26.288 19.3101C26.2917 19.6027 26.3715 19.8893 26.5194 20.1417C26.6674 20.3942 26.8785 20.6038 27.132 20.75C27.9278 21.2418 28.7971 21.603 29.707 21.82C30.5127 22.0404 31.2985 22.3281 32.056 22.6801C32.656 22.9484 33.2119 23.3057 33.705 23.74C34.1232 24.1071 34.4563 24.5609 34.681 25.07C34.901 25.6023 35.0099 26.1741 35.001 26.75C35.0126 27.3536 34.8777 27.9509 34.6077 28.4909C34.3377 29.0308 33.9408 29.4972 33.451 29.85C32.9074 30.2378 32.2974 30.5224 31.651 30.69C30.8814 30.8946 30.0873 30.9923 29.291 30.98C28.5202 30.9802 27.7526 30.8794 27.008 30.6801C26.2871 30.4917 25.6042 30.1805 24.989 29.76C24.4038 29.3604 23.9125 28.8383 23.549 28.23C23.1737 27.5732 22.9853 26.8262 23.004 26.07H25.794C25.7837 26.5086 25.8762 26.9435 26.064 27.34C26.237 27.6827 26.491 27.9779 26.804 28.2C27.1361 28.4371 27.5131 28.6039 27.912 28.69C28.3631 28.8012 28.8265 28.855 29.291 28.85C30.0638 28.9051 30.8332 28.7049 31.481 28.28C31.7145 28.1049 31.9027 27.8765 32.0299 27.6138C32.157 27.3511 32.2195 27.0618 32.212 26.77V26.77ZM23.5 47C18.8522 47 14.3087 45.6218 10.4441 43.0396C6.57956 40.4574 3.5675 36.7871 1.78884 32.4931C0.0101787 28.199 -0.455195 23.474 0.451558 18.9154C1.35831 14.3569 3.59648 10.1695 6.88302 6.88295C10.1695 3.59642 14.3569 1.35831 18.9154 0.451558C23.474 -0.455195 28.199 0.0101787 32.4931 1.78884C36.7871 3.5675 40.4574 6.57956 43.0396 10.4441C45.6218 14.3087 47 18.8522 47 23.5C46.9934 29.7306 44.5154 35.7041 40.1097 40.1098C35.704 44.5154 29.7306 46.9934 23.5 47ZM23.5 1.00002C19.0499 1.00002 14.6998 2.31968 10.9997 4.79201C7.29961 7.26434 4.4157 10.7783 2.71273 14.8897C1.00976 19.001 0.564164 23.525 1.43233 27.8895C2.3005 32.2541 4.44343 36.2632 7.59011 39.4099C10.7368 42.5566 14.7459 44.6995 19.1105 45.5676C23.4751 46.4358 27.999 45.9902 32.1104 44.2873C36.2217 42.5843 39.7358 39.7005 42.2081 36.0004C44.6804 32.3003 46 27.9501 46 23.5C45.9937 17.5346 43.6211 11.8154 39.4029 7.59719C35.1847 3.379 29.4654 1.00637 23.5 1.00002Z" fill="#9E9E9E"/>
</svg>
