<svg width="47" height="47" viewBox="0 0 47 47" fill="none" xmlns="http://www.w3.org/2000/svg">
<path fill-rule="evenodd" clip-rule="evenodd" d="M14.5 16.99H13.5C12.837 16.99 12.2011 16.7266 11.7323 16.2578C11.2634 15.7889 11 15.1531 11 14.49V13.49C11 12.827 11.2634 12.1911 11.7323 11.7222C12.2011 11.2534 12.837 10.99 13.5 10.99H14.5C15.1631 10.99 15.7989 11.2534 16.2678 11.7222C16.7366 12.1911 17 12.827 17 13.49V14.49C17 15.1531 16.7366 15.7889 16.2678 16.2578C15.7989 16.7266 15.1631 16.99 14.5 16.99ZM13.5 11.99C13.1022 11.99 12.7207 12.148 12.4394 12.4293C12.158 12.7106 12 13.0922 12 13.49V14.49C12 14.8878 12.158 15.2694 12.4394 15.5507C12.7207 15.832 13.1022 15.99 13.5 15.99H14.5C14.8978 15.99 15.2794 15.832 15.5607 15.5507C15.842 15.2694 16 14.8878 16 14.49V13.49C16 13.0922 15.842 12.7106 15.5607 12.4293C15.2794 12.148 14.8978 11.99 14.5 11.99H13.5ZM36.01 14.99H20.01V12.99H36.01V14.99ZM14.5 27H13.5C12.837 27 12.2011 26.7366 11.7323 26.2678C11.2634 25.7989 11 25.1631 11 24.5V23.5C11 22.837 11.2634 22.2011 11.7323 21.7323C12.2011 21.2634 12.837 21 13.5 21H14.5C15.1631 21 15.7989 21.2634 16.2678 21.7323C16.7366 22.2011 17 22.837 17 23.5V24.5C17 25.1631 16.7366 25.7989 16.2678 26.2678C15.7989 26.7366 15.1631 27 14.5 27V27ZM13.5 22C13.1022 22 12.7207 22.158 12.4394 22.4394C12.158 22.7207 12 23.1022 12 23.5V24.5C12 24.8978 12.158 25.2794 12.4394 25.5607C12.7207 25.842 13.1022 26 13.5 26H14.5C14.8978 26 15.2794 25.842 15.5607 25.5607C15.842 25.2794 16 24.8978 16 24.5V23.5C16 23.1022 15.842 22.7207 15.5607 22.4394C15.2794 22.158 14.8978 22 14.5 22H13.5ZM36.01 25H20.01V23H36.01V25ZM14.5 37H13.5C12.837 37 12.2011 36.7366 11.7323 36.2678C11.2634 35.7989 11 35.1631 11 34.5V33.5C11 32.837 11.2634 32.2011 11.7323 31.7323C12.2011 31.2634 12.837 31 13.5 31H14.5C15.1631 31 15.7989 31.2634 16.2678 31.7323C16.7366 32.2011 17 32.837 17 33.5V34.5C17 35.1631 16.7366 35.7989 16.2678 36.2678C15.7989 36.7366 15.1631 37 14.5 37V37ZM13.5 32C13.1022 32 12.7207 32.158 12.4394 32.4394C12.158 32.7207 12 33.1022 12 33.5V34.5C12 34.8978 12.158 35.2794 12.4394 35.5607C12.7207 35.842 13.1022 36 13.5 36H14.5C14.8978 36 15.2794 35.842 15.5607 35.5607C15.842 35.2794 16 34.8978 16 34.5V33.5C16 33.1022 15.842 32.7207 15.5607 32.4394C15.2794 32.158 14.8978 32 14.5 32H13.5ZM36.01 35H20.01V33H36.01V35ZM23.5 47C18.8522 47 14.3087 45.6218 10.4441 43.0396C6.57956 40.4574 3.5675 36.7871 1.78884 32.4931C0.0101787 28.199 -0.455195 23.474 0.451558 18.9154C1.35831 14.3569 3.59648 10.1695 6.88302 6.88302C10.1695 3.59648 14.3569 1.35831 18.9154 0.451558C23.474 -0.455195 28.199 0.0101787 32.4931 1.78884C36.7871 3.5675 40.4574 6.57956 43.0396 10.4441C45.6218 14.3087 47 18.8522 47 23.5C46.9929 29.7304 44.5147 35.7036 40.1091 40.1091C35.7036 44.5147 29.7304 46.9929 23.5 47V47ZM23.5 1.00002C19.0499 1.00002 14.6998 2.31962 10.9997 4.79195C7.29961 7.26428 4.4157 10.7783 2.71273 14.8897C1.00976 19.001 0.564164 23.525 1.43233 27.8895C2.3005 32.2541 4.44343 36.2632 7.59011 39.4099C10.7368 42.5566 14.7459 44.6995 19.1105 45.5677C23.4751 46.4359 27.999 45.9903 32.1104 44.2873C36.2217 42.5843 39.7358 39.7004 42.2081 36.0003C44.6804 32.3002 46 27.9501 46 23.5C45.9931 17.5348 43.6204 11.8158 39.4023 7.59774C35.1842 3.37966 29.4653 1.0069 23.5 1.00002V1.00002Z" fill="#9E9E9E"/>
</svg>
