<svg width="47" height="47" viewBox="0 0 47 47" fill="none" xmlns="http://www.w3.org/2000/svg">
<path fill-rule="evenodd" clip-rule="evenodd" d="M33.847 8.31102L13.347 10.011C13.333 10.011 13.321 10.019 13.307 10.019H13.171C13.0198 10.0164 12.8695 10.0435 12.7288 10.099C12.5881 10.1545 12.4597 10.2372 12.3509 10.3423C12.2422 10.4474 12.1551 10.573 12.0949 10.7118C12.0347 10.8505 12.0025 10.9998 12 11.151V36.872C12.0029 37.0231 12.0355 37.172 12.0959 37.3105C12.1564 37.4489 12.2435 37.5741 12.3523 37.6788C12.4612 37.7836 12.5896 37.8658 12.7302 37.9209C12.8709 37.9761 13.021 38.0029 13.172 38H13.308C13.322 38 13.334 38.008 13.348 38.008L13.439 38H32.3C32.451 38.0025 32.6011 37.9753 32.7416 37.9198C32.8821 37.8643 33.0102 37.7817 33.1188 37.6767C33.2273 37.5717 33.3141 37.4463 33.3742 37.3077C33.4343 37.1691 33.4665 37.02 33.469 36.869V36.341L33.847 36.309C34.1493 36.3106 34.4398 36.1922 34.6549 35.9798C34.8699 35.7674 34.9919 35.4783 34.994 35.176V9.44402C34.9919 9.14175 34.8699 8.85267 34.6549 8.64025C34.4398 8.42783 34.1493 8.30943 33.847 8.31102V8.31102ZM31.947 36.872C31.9432 36.9072 31.9258 36.9394 31.8985 36.9618C31.8712 36.9843 31.8362 36.9951 31.801 36.992H13.172C13.1368 36.9951 13.1018 36.9843 13.0745 36.9618C13.0472 36.9394 13.0298 36.9072 13.026 36.872V11.151C13.0298 11.1157 13.0471 11.0833 13.0744 11.0605C13.1016 11.0378 13.1366 11.0265 13.172 11.029H31.8C31.8354 11.0265 31.8704 11.0378 31.8977 11.0605C31.9249 11.0833 31.9422 11.1157 31.946 11.151V36.872H31.947ZM33.972 35.179C33.9715 35.2115 33.9582 35.2426 33.935 35.2654C33.9118 35.2882 33.8806 35.301 33.848 35.301H33.8H33.755L32.967 35.326V11.151C32.962 10.8459 32.836 10.5553 32.6168 10.343C32.3976 10.1307 32.1031 10.0142 31.798 10.019H25.898L33.869 9.32403C33.897 9.32935 33.9223 9.34422 33.9405 9.36611C33.9587 9.38799 33.9688 9.41553 33.969 9.44402V35.179H33.972ZM27.872 31.001H17.136C16.9829 31.0056 16.8323 31.0402 16.6926 31.1029C16.553 31.1657 16.427 31.2553 16.322 31.3668C16.217 31.4782 16.1349 31.6092 16.0805 31.7524C16.0261 31.8955 16.0005 32.048 16.005 32.201V32.801C16.0004 32.9541 16.0259 33.1066 16.0803 33.2498C16.1346 33.393 16.2166 33.5241 16.3217 33.6355C16.4267 33.747 16.5527 33.8367 16.6925 33.8994C16.8322 33.9621 16.9829 33.9966 17.136 34.001H27.875C28.0281 33.9966 28.1788 33.9621 28.3186 33.8994C28.4583 33.8367 28.5843 33.747 28.6894 33.6355C28.7944 33.5241 28.8765 33.393 28.9308 33.2498C28.9851 33.1066 29.0107 32.9541 29.006 32.801V32.201C29.0107 32.0479 28.9851 31.8953 28.9308 31.7521C28.8765 31.6088 28.7944 31.4777 28.6894 31.3661C28.5844 31.2546 28.4584 31.1649 28.3186 31.102C28.1789 31.0392 28.0282 31.0045 27.875 31L27.872 31.001ZM28.003 32.801C28.0088 32.8445 27.9987 32.8887 27.9747 32.9254C27.9506 32.9621 27.9142 32.9889 27.872 33.001H17.136C17.0937 32.9891 17.0572 32.9623 17.0331 32.9256C17.009 32.8888 16.999 32.8445 17.005 32.801V32.201C16.9988 32.1574 17.0087 32.1131 17.0328 32.0763C17.0569 32.0395 17.0936 32.0127 17.136 32.001H27.875C27.9174 32.0127 27.9541 32.0395 27.9782 32.0763C28.0023 32.1131 28.0122 32.1574 28.006 32.201V32.801H28.003ZM22.5 27C21.2144 27 19.9577 26.6188 18.8888 25.9046C17.8199 25.1903 16.9868 24.1752 16.4948 22.9875C16.0029 21.7998 15.8741 20.4928 16.1249 19.2319C16.3757 17.971 16.9948 16.8129 17.9038 15.9038C18.8129 14.9948 19.9711 14.3757 21.232 14.1249C22.4928 13.8741 23.7997 14.0028 24.9874 14.4948C26.1752 14.9868 27.1903 15.8199 27.9046 16.8888C28.6188 17.9577 29 19.2144 29 20.5C29 22.2239 28.3152 23.8772 27.0962 25.0962C25.8772 26.3152 24.2239 27 22.5 27V27ZM22.5 15C21.4122 15 20.3488 15.3226 19.4444 15.9269C18.5399 16.5313 17.8349 17.3903 17.4187 18.3953C17.0024 19.4002 16.8935 20.5061 17.1057 21.573C17.3179 22.6399 17.8417 23.6199 18.6109 24.3891C19.3801 25.1583 20.3601 25.6821 21.427 25.8943C22.4939 26.1066 23.5998 25.9976 24.6048 25.5813C25.6097 25.1651 26.4687 24.4601 27.0731 23.5557C27.6774 22.6512 28 21.5878 28 20.5C28 19.0413 27.4206 17.6424 26.3891 16.6109C25.3577 15.5795 23.9587 15 22.5 15ZM23.5 47C18.8522 47 14.3087 45.6218 10.4441 43.0396C6.57956 40.4574 3.5675 36.7872 1.78884 32.4931C0.0101787 28.199 -0.455195 23.4739 0.451558 18.9154C1.35831 14.3568 3.59648 10.1695 6.88302 6.88302C10.1695 3.59648 14.3569 1.35831 18.9154 0.451558C23.474 -0.455195 28.199 0.0101787 32.4931 1.78884C36.7871 3.5675 40.4574 6.57956 43.0396 10.4441C45.6218 14.3087 47 18.8522 47 23.5C46.9929 29.7304 44.5147 35.7036 40.1091 40.1091C35.7036 44.5147 29.7304 46.9929 23.5 47ZM23.5 1.00002C19.0499 1.00002 14.6998 2.31962 10.9997 4.79195C7.29961 7.26428 4.4157 10.7783 2.71273 14.8896C1.00976 19.001 0.564164 23.525 1.43233 27.8895C2.3005 32.2541 4.44343 36.2632 7.59011 39.4099C10.7368 42.5566 14.7459 44.6995 19.1105 45.5677C23.4751 46.4358 27.999 45.9903 32.1104 44.2873C36.2217 42.5843 39.7358 39.7005 42.2081 36.0004C44.6804 32.3002 46 27.9501 46 23.5C45.9931 17.5348 43.6204 11.8158 39.4023 7.59771C35.1842 3.37963 29.4653 1.0069 23.5 1.00002V1.00002Z" fill="#9E9E9E"/>
</svg>
