<svg width="24" height="27" viewBox="0 0 24 27" fill="none" xmlns="http://www.w3.org/2000/svg">
<path fill-rule="evenodd" clip-rule="evenodd" d="M22.791 14.84C22.794 16.7892 22.279 18.7042 21.2987 20.3889C20.3184 22.0737 18.908 23.4678 17.212 24.4283C15.5159 25.3889 13.595 25.8815 11.646 25.8558C9.69697 25.8301 7.78979 25.2871 6.11964 24.2821C4.44948 23.2771 3.07635 21.8464 2.14082 20.1364C1.20528 18.4263 0.740931 16.4985 0.795296 14.55C0.849661 12.6016 1.42077 10.7026 2.4502 9.04736C3.47963 7.39217 4.93041 6.04028 6.654 5.13L10.368 1.42004C10.7429 1.04632 11.2507 0.836426 11.78 0.836426C12.3094 0.836426 12.8171 1.04632 13.192 1.42004L16.876 5.09998C18.6573 6.02861 20.1503 7.42739 21.1931 9.14441C22.2358 10.8614 22.7884 12.8311 22.791 14.84V14.84Z" fill="white" stroke="#B0B0B0" stroke-linejoin="round"/>
</svg>
